<?xml version="1.0" encoding="UTF-8"?>
<svg xmlns="http://www.w3.org/2000/svg" width="156" height="38" viewBox="0 0 156 38" fill="none">
  <path fill-rule="evenodd" clip-rule="evenodd" d="M48.5182 25.369C48.6316 25.369 48.7369 25.3555 48.8368 25.3339C48.9314 25.3555 49.0313 25.3663 49.1366 25.369C49.1385 25.3709 49.1391 25.3729 49.1402 25.3748L49.1411 25.3761L49.142 25.3771C47.0491 28.9716 43.1603 31.3886 38.7017 31.3886C35.1909 31.3886 32.0313 29.8898 29.8249 27.4998C28.6205 29.3226 26.5546 30.5271 24.2051 30.5271C21.3425 30.5271 18.8985 28.7393 17.9263 26.2197C17.875 26.3142 17.821 26.406 17.767 26.4979V25.523H20.4135C20.6782 25.523 20.8915 25.3096 20.8915 25.045V23.2653C21.3371 23.0573 21.645 22.6064 21.645 22.0851C21.645 21.3668 21.0589 20.7808 20.3406 20.7808C19.6222 20.7808 19.0362 21.3668 19.0362 22.0851C19.0362 22.6631 19.4143 23.1546 19.9355 23.3247V24.567H17.289C17.0243 24.567 16.811 24.7803 16.811 25.045V27.8805C16.4059 28.3693 15.9495 28.8149 15.4553 29.2119V20.6917C15.9603 20.5107 16.3249 20.03 16.3249 19.4629C16.3249 18.7446 15.7388 18.1585 15.0205 18.1585C14.3021 18.1585 13.7161 18.7446 13.7161 19.4629C13.7161 19.9949 14.0375 20.454 14.4966 20.6566V29.8898C14.0969 30.1382 13.6729 30.3542 13.2354 30.5406V20.0867C13.2354 19.8221 13.0221 19.6087 12.7574 19.6087H10.4863C10.4539 19.6087 10.4241 19.6114 10.3944 19.6168C10.2108 19.1199 9.7328 18.7662 9.17379 18.7662C8.45544 18.7662 7.86942 19.3522 7.86942 20.0705C7.86942 20.7889 8.45544 21.3749 9.17379 21.3749C9.722 21.3749 10.1919 21.0346 10.3836 20.5539L10.3906 20.555C10.4231 20.56 10.4535 20.5647 10.4863 20.5647H12.2767V30.889C11.8689 31.0132 11.4477 31.1104 11.0156 31.1779V25.6742C11.0156 25.4095 10.8022 25.1962 10.5376 25.1962H5.00683C4.82049 24.7047 4.34519 24.3536 3.78888 24.3536C3.07053 24.3536 2.48451 24.9396 2.48451 25.658C2.48451 26.3763 3.07053 26.9624 3.78888 26.9624C4.33169 26.9624 4.79619 26.6275 4.99333 26.1549H10.0569V31.2859C9.87593 31.2967 9.69229 31.3048 9.50866 31.3048C4.25608 31.3048 0 27.0488 0 21.7962C0 17.8912 2.35759 14.5371 5.72518 13.0734C5.69817 12.7412 5.68197 12.4091 5.68197 12.0715C5.68197 5.40381 11.0858 0 17.7535 0C24.116 0 29.3226 4.92041 29.7871 11.1641C31.9935 8.7498 35.1693 7.23479 38.699 7.23479C43.217 7.23479 47.1463 9.7193 49.2176 13.3921C49.1582 13.4299 49.1015 13.4704 49.0475 13.5136C48.9881 13.5433 48.9287 13.5784 48.8774 13.6189C47.573 12.3523 45.7582 11.634 43.6275 11.634C39.1851 11.634 36.0497 14.8125 36.0497 19.3198C36.0497 23.827 39.1824 26.984 43.6275 26.984C45.5503 26.984 47.2165 26.406 48.4831 25.3663C48.4902 25.3663 48.4966 25.3671 48.5026 25.3678L48.5026 25.3678C48.508 25.3684 48.5131 25.369 48.5182 25.369ZM46.7437 16.9164H50.5407C50.6947 17.6914 50.7784 18.4908 50.7811 19.3145C50.7811 20.1408 50.6974 20.9483 50.538 21.7288H46.7437C46.1199 23.0169 44.983 23.6597 43.5868 23.6597C41.3318 23.6597 39.7871 21.9853 39.7871 19.3226C39.7871 16.6598 41.3318 14.9855 43.5868 14.9855C44.983 14.9855 46.1199 15.6282 46.7437 16.9164ZM15.4986 19.4629C15.4986 19.201 15.2853 18.9876 15.0233 18.9876C14.7614 18.9876 14.5481 19.201 14.5481 19.4629C14.5481 19.7249 14.7614 19.9382 15.0233 19.9382C15.2853 19.9382 15.4986 19.7249 15.4986 19.4629ZM20.3452 21.6072C20.6071 21.6072 20.8205 21.8206 20.8205 22.0825C20.8205 22.3472 20.6044 22.5605 20.3452 22.5578C20.0832 22.5578 19.8699 22.3445 19.8699 22.0825C19.8699 21.8206 20.0832 21.6072 20.3452 21.6072ZM8.70106 20.0706C8.70106 20.3325 8.9144 20.5459 9.17635 20.5459C9.43831 20.5459 9.65165 20.3325 9.65165 20.0706C9.65165 19.8086 9.43831 19.5953 9.17635 19.5953C8.9144 19.5953 8.70106 19.8086 8.70106 20.0706ZM3.78907 26.1333C3.52712 26.1333 3.31378 25.9199 3.31378 25.658C3.31378 25.396 3.52712 25.1827 3.78907 25.1827C4.05103 25.1827 4.26437 25.396 4.26437 25.658C4.26437 25.9199 4.05103 26.1333 3.78907 26.1333ZM56.7304 26.1711H52.6607C52.6337 26.1711 52.6094 26.1495 52.6094 26.1198V22.0528C52.6094 22.0258 52.631 22.0015 52.6607 22.0015H56.7304C56.7574 22.0015 56.7817 22.0231 56.7817 22.0528V26.1225C56.779 26.1495 56.7574 26.1711 56.7304 26.1711ZM56.8117 21.3182H59.199C59.2179 21.3182 59.2341 21.3047 59.2314 21.2858V18.8985C59.2314 18.8796 59.2179 18.8661 59.199 18.8661H56.8117C56.7928 18.8661 56.7793 18.8796 56.7793 18.8985V21.2858C56.7793 21.3047 56.7928 21.3182 56.8117 21.3182ZM56.4627 18.5257H53.3273C53.3084 18.5257 53.2949 18.5122 53.2949 18.4933V15.358C53.2949 15.3391 53.3084 15.3256 53.3273 15.3256H56.4627C56.4816 15.3256 56.4951 15.3391 56.4951 15.358V18.4933C56.4951 18.5122 56.4789 18.5257 56.4627 18.5257ZM56.5285 14.5749H58.3001C58.319 14.5749 58.3325 14.5614 58.3325 14.5425V12.7709C58.3325 12.752 58.319 12.7385 58.3001 12.7385H56.5285C56.5096 12.7385 56.4961 12.752 56.4961 12.7709V14.5425C56.4961 14.5614 56.5096 14.5749 56.5285 14.5749ZM55.4348 12.2848H53.5012C53.4823 12.2848 53.4688 12.2713 53.4688 12.2524V10.3188C53.4688 10.2999 53.4823 10.2864 53.5012 10.2864H55.4348C55.4537 10.2864 55.4672 10.2999 55.4672 10.3188V12.2524C55.4672 12.2686 55.4537 12.2848 55.4348 12.2848ZM56.05 9.17378H57.6892C57.7081 9.17378 57.7216 9.15757 57.7216 9.13867V7.50213C57.7216 7.48323 57.7081 7.46973 57.6892 7.46973H56.05C56.0311 7.46973 56.0176 7.48323 56.0176 7.50213V9.14137C56.0176 9.16027 56.0311 9.17378 56.05 9.17378ZM54.6732 5.7954H53.4904C53.4795 5.7954 53.4688 5.7846 53.4688 5.7738V4.58825C53.4688 4.57745 53.4795 4.56665 53.4904 4.56665H54.6732C54.684 4.56665 54.6948 4.57745 54.6948 4.58825V5.7738C54.6948 5.7846 54.6867 5.7954 54.6732 5.7954ZM61.25 19.3739C61.25 23.1384 63.8695 25.5635 67.3317 25.5635C70.8154 25.5635 73.5861 23.1384 73.5861 19.3739C73.5861 15.585 70.8802 13.1842 67.4181 13.1842C63.956 13.1842 61.25 15.5877 61.25 19.3739ZM70.4697 19.3739C70.4697 21.7531 68.9331 22.9224 67.3317 22.9224C65.7086 22.9224 64.3232 21.7531 64.3232 19.3739C64.3232 16.9731 65.7734 15.8253 67.3749 15.8253C68.9763 15.8253 70.4697 16.9731 70.4697 19.3739ZM87.1315 25.369H84.0799V23.854C83.3237 24.8721 82.0032 25.5202 80.5098 25.5202C77.7174 25.5202 75.7055 23.7028 75.7055 20.4135V13.3785H78.7355V19.9787C78.7355 21.9042 79.7968 22.9439 81.3982 22.9439C83.0429 22.9439 84.0826 21.9042 84.0826 19.9787V13.3785H87.1342V25.369H87.1315ZM98.7519 15.0448C97.9309 13.9187 96.4159 13.1841 94.8361 13.1841C91.7629 13.1841 89.3405 15.5876 89.3405 19.3306C89.3405 23.0736 91.7629 25.5635 94.8145 25.5635C96.6968 25.5635 98.039 24.6993 98.7519 23.5948V25.369H101.825V9.35474H98.7519V15.0448ZM92.4353 19.3306C92.4353 17.0594 93.9719 15.8469 95.595 15.8469C97.2612 15.8469 98.7762 17.1026 98.7762 19.3738C98.7762 21.645 97.2612 22.9007 95.595 22.9007C93.9719 22.9007 92.4353 21.6018 92.4353 19.3306ZM104.662 10.4538H115.796V12.9113H111.751V25.6336H108.708V12.9113H104.662V10.4538ZM117.231 19.6087C117.231 23.3922 119.777 25.8281 123.277 25.8281C126.256 25.8281 128.257 24.0673 128.911 21.8502H125.627C125.235 22.6522 124.517 23.3058 123.213 23.3058C121.689 23.3058 120.471 22.3039 120.32 20.5215H129.127C129.192 20.1299 129.213 19.7383 129.213 19.3468C129.213 15.7604 126.756 13.3893 123.277 13.3893C119.71 13.3893 117.231 15.8036 117.231 19.6087ZM126.062 18.4772H120.342C120.58 16.8244 121.733 15.89 123.191 15.89C124.757 15.89 126.018 16.8892 126.062 18.4772ZM136.606 13.3893C139.607 13.3893 141.629 14.9557 142.283 17.6508H138.999C138.651 16.63 137.846 15.9765 136.585 15.9765C134.889 15.9765 133.757 17.2592 133.757 19.6087C133.757 21.9582 134.889 23.2194 136.585 23.2194C137.846 23.2194 138.629 22.6549 138.999 21.5666H142.283C141.629 24.1321 139.609 25.8281 136.606 25.8281C133.128 25.8281 130.649 23.3922 130.649 19.6087C130.646 15.8252 133.125 13.3893 136.606 13.3893ZM147.564 9.54102H144.52V25.6336H147.564V18.9795C147.564 17.0459 148.63 16.0007 150.283 16.0007C151.89 16.0007 152.957 17.0432 152.957 18.9795V25.6309H156V18.5636C156 15.2365 154.023 13.4109 151.304 13.4109C149.694 13.4109 148.347 14.0617 147.564 15.0853V9.54102ZM118.558 37.5945C117.319 37.5945 116.447 36.9734 116.357 35.9742H117.078C117.138 36.5737 117.659 37.0058 118.55 37.0058C119.331 37.0058 119.771 36.5845 119.771 36.066C119.771 35.4613 119.113 35.2861 118.386 35.0926C117.49 34.8541 116.49 34.5878 116.49 33.4546C116.49 32.6444 117.259 31.9747 118.41 31.9747C119.579 31.9747 120.352 32.5958 120.411 33.6463H119.712C119.671 33.036 119.22 32.5769 118.391 32.5769C117.662 32.5769 117.2 32.9658 117.2 33.4465C117.2 34.1381 117.906 34.3342 118.661 34.5441C119.522 34.7832 120.446 35.0402 120.462 36.0687C120.46 36.9437 119.687 37.5945 118.558 37.5945ZM121.459 34.7832C121.459 36.5143 122.591 37.5945 124.141 37.5945C125.513 37.5945 126.39 36.8141 126.644 35.7824H125.904C125.704 36.5116 125.075 37.0031 124.143 37.0031C123.123 37.0031 122.231 36.3334 122.172 35.0533H126.703C126.722 34.8616 126.722 34.7212 126.722 34.5026V34.5024C126.722 33.1116 125.742 31.972 124.141 31.972C122.569 31.972 121.459 33.0414 121.459 34.7832ZM126.012 34.4835H122.169C122.25 33.2142 123.12 32.5715 124.111 32.5715C125.121 32.5715 126.042 33.2142 126.012 34.4835ZM128.701 37.5135H128.002V32.0502H128.701V33.0197C129.001 32.35 129.633 31.9503 130.573 31.9503V32.6795H130.384C129.474 32.6795 128.704 33.0899 128.704 34.4591L128.701 37.5135ZM133.566 36.8357L131.724 32.053H130.976L133.166 37.5162H133.957L136.147 32.053H135.407L133.566 36.8357ZM136.936 30.5028C136.936 30.2031 137.166 29.9924 137.446 29.9924C137.727 29.9924 137.957 30.2031 137.957 30.5028C137.957 30.8026 137.727 31.024 137.446 31.024C137.168 31.0213 136.936 30.8026 136.936 30.5028ZM137.098 32.053H137.798V37.5162H137.098V32.053ZM144.23 33.8326C143.979 32.7011 143.091 31.972 141.719 31.972C140.18 31.972 139.067 33.0522 139.067 34.7832C139.067 36.5143 140.177 37.5945 141.719 37.5945C143.091 37.5945 143.979 36.8249 144.23 35.7338H143.48C143.291 36.5332 142.64 37.0031 141.719 37.0031C140.647 37.0031 139.777 36.2658 139.777 34.7832C139.777 33.3006 140.65 32.5715 141.719 32.5715C142.64 32.5715 143.299 33.0522 143.48 33.8326H144.23ZM147.881 37.5945C146.331 37.5945 145.2 36.5143 145.2 34.7832C145.2 33.0414 146.31 31.972 147.881 31.972C149.483 31.972 150.463 33.1116 150.463 34.5024C150.463 34.7211 150.463 34.8616 150.444 35.0533H145.913C145.972 36.3334 146.863 37.0031 147.884 37.0031C148.816 37.0031 149.445 36.5116 149.645 35.7824H150.385C150.134 36.8141 149.253 37.5945 147.881 37.5945ZM145.91 34.4835H149.753C149.783 33.2142 148.862 32.5715 147.852 32.5715C146.861 32.5715 145.991 33.2142 145.91 34.4835ZM151.425 35.9742C151.514 36.9734 152.386 37.5945 153.626 37.5945C154.755 37.5945 155.524 36.9437 155.53 36.0687C155.514 35.0402 154.589 34.7832 153.729 34.5441C152.974 34.3342 152.268 34.1381 152.268 33.4465C152.268 32.9658 152.729 32.5769 153.459 32.5769C154.29 32.5769 154.739 33.036 154.779 33.6463H155.479C155.419 32.5958 154.647 31.9747 153.477 31.9747C152.327 31.9747 151.557 32.6444 151.557 33.4546C151.557 34.5878 152.558 34.8541 153.454 35.0926C154.18 35.2861 154.839 35.4613 154.839 36.066C154.839 36.5845 154.398 37.0058 153.618 37.0058C152.727 37.0058 152.205 36.5737 152.146 35.9742H151.425Z" fill="white"></path>
</svg>
